<svg height='300px' width='300px'  fill="#000000" xmlns="http://www.w3.org/2000/svg" data-name="Layer 1" viewBox="0 0 100 100" x="0px" y="0px"><title>Calendar</title><rect x="31.99" y="67.88" width="12.01" height="6.78"></rect><rect x="31.99" y="35.53" width="12.01" height="6.78"></rect><rect x="31.99" y="46.31" width="12.01" height="6.78"></rect><rect x="31.99" y="57.1" width="12.01" height="6.78"></rect><rect x="15.99" y="57.1" width="12" height="6.78"></rect><rect x="15.99" y="67.88" width="12" height="6.78"></rect><rect x="15.99" y="46.31" width="12" height="6.78"></rect><rect x="64.01" y="35.53" width="12" height="6.78"></rect><rect x="48" y="35.53" width="12.01" height="6.78"></rect><path d="M72,17.49A2.5,2.5,0,0,1,69.5,15V7.5a2.5,2.5,0,0,1,5,0V15A2.5,2.5,0,0,1,72,17.49Z"></path><path d="M20,17.49A2.5,2.5,0,0,1,17.5,15V7.5a2.5,2.5,0,0,1,5,0V15A2.5,2.5,0,0,1,20,17.49Z"></path><path d="M37.33,17.49a2.5,2.5,0,0,1-2.5-2.5V7.5a2.5,2.5,0,0,1,5,0V15A2.5,2.5,0,0,1,37.33,17.49Z"></path><path d="M54.67,17.49a2.5,2.5,0,0,1-2.5-2.5V7.5a2.5,2.5,0,0,1,5,0V15A2.5,2.5,0,0,1,54.67,17.49Z"></path><path d="M45.64,78.66H13.3A1.31,1.31,0,0,1,12,77.35V31.53H80V46a27,27,0,0,1,7,3.29V18.5a7.25,7.25,0,0,0-7.25-7.25H78.5v3.51a6.66,6.66,0,0,1-5.64,6.68A6.51,6.51,0,0,1,65.5,15V11.25H61.17v3.51a6.66,6.66,0,0,1-5.65,6.68A6.51,6.51,0,0,1,48.17,15V11.25H43.83v3.51a6.65,6.65,0,0,1-5.64,6.68A6.51,6.51,0,0,1,30.83,15V11.25H26.5v3.51a6.66,6.66,0,0,1-5.64,6.68A6.51,6.51,0,0,1,13.5,15V11.25H12.25A7.25,7.25,0,0,0,5,18.5V79.75A7.26,7.26,0,0,0,12.25,87H49.3A27,27,0,0,1,45.64,78.66Z"></path><path d="M60,47.65V46.31H48V53.1h4.54A27,27,0,0,1,60,47.65Z"></path><path d="M72.06,49.12A22.94,22.94,0,1,0,95,72.06,22.94,22.94,0,0,0,72.06,49.12Zm0,41.58A18.64,18.64,0,1,1,90.7,72.06,18.66,18.66,0,0,1,72.06,90.7Z"></path><path d="M70.29,84l-8.64-4.76a2,2,0,1,1,1.93-3.51l6.55,3.61,9.63-17.5a2,2,0,1,1,3.5,1.93L72.48,83.32A1.62,1.62,0,0,1,70.29,84Z"></path></svg>
